# xmcd
# Copyright (C) 1995-1998 Ti Kan
#
# Track frame offsets:
#       150
#       14756
#       37771
#       51645
#       71456
#       91758
#       111392
#       127438
#
# Disc length: 1905 seconds
#
# Revision: 0
# Processed by: cddbd v1.5.2PL0 Copyright (c) Steve Scherf et al.
# Submitted via: CD-Transfer v1.0
#
DISCID=73076f08
DTITLE=Y825 - 
DYEAR=06
DGENRE=
TTITLE0=Go away (if you want to stay free) 
TTITLE1=Cheers
TTITLE2=Try
TTITLE3=Let Me Go
TTITLE4=Why?
TTITLE5=Shaked Down
TTITLE6=High School blues
TTITLE7=Flying horse
EXTD=
EXTT0=
EXTT1=
EXTT2=
EXTT3=
EXTT4=
EXTT5=
EXTT6=
EXTT7=
PLAYORDER=
